<svg width="32" height="32" viewBox="0 0 32 32" fill="none" xmlns="http://www.w3.org/2000/svg">
<path fill-rule="evenodd" clip-rule="evenodd" d="M8.94279 2.50491C9.69294 1.75476 10.7104 1.33334 11.7712 1.33334H20.2288C21.2896 1.33334 22.307 1.75476 23.0572 2.50491L29.495 8.94282C30.2452 9.69296 30.6666 10.7104 30.6666 11.7712V20.2288C30.6666 21.2896 30.2452 22.3071 29.495 23.0572L23.0572 29.4951C22.307 30.2452 21.2896 30.6667 20.2288 30.6667H11.7712C10.7104 30.6667 9.69294 30.2452 8.94279 29.4951L2.50489 23.0572C1.75474 22.3071 1.33331 21.2896 1.33331 20.2288V11.7712C1.33331 10.7104 1.75474 9.69296 2.50489 8.94282L8.94279 2.50491ZM11.7712 4C11.4176 4 11.0785 4.14048 10.8284 4.39052L4.3905 10.8284C4.14046 11.0785 3.99998 11.4176 3.99998 11.7712V20.2288C3.99998 20.5824 4.14046 20.9215 4.3905 21.1716L10.8284 27.6095C11.0785 27.8595 11.4176 28 11.7712 28H20.2288C20.5824 28 20.9214 27.8595 21.1716 27.6095L27.6094 21.1716C27.8594 20.9215 28 20.5824 28 20.2288V11.7712C28 11.4176 27.8594 11.0785 27.6094 10.8284L21.1716 4.39052C20.9214 4.14048 20.5824 4 20.2288 4H11.7712ZM10.6666 16C10.6666 15.2636 11.2636 14.6667 12 14.6667H20C20.7364 14.6667 21.3333 15.2636 21.3333 16C21.3333 16.7364 20.7364 17.3333 20 17.3333H12C11.2636 17.3333 10.6666 16.7364 10.6666 16Z" fill="white"/>
</svg>
