<svg width="32" height="32" viewBox="0 0 32 32" fill="none" xmlns="http://www.w3.org/2000/svg">
<path fill-rule="evenodd" clip-rule="evenodd" d="M16.3555 5.33334C10.4644 5.33334 5.68882 10.109 5.68882 16C5.68882 21.8911 10.4644 26.6667 16.3555 26.6667C22.2466 26.6667 27.0222 21.8911 27.0222 16C27.0222 10.109 22.2466 5.33334 16.3555 5.33334ZM3.02216 16C3.02216 8.63621 8.99169 2.66667 16.3555 2.66667C23.7192 2.66667 29.6888 8.63621 29.6888 16C29.6888 23.3637 23.7192 29.3333 16.3555 29.3333C8.99169 29.3333 3.02216 23.3637 3.02216 16Z" fill="white"/>
<path fill-rule="evenodd" clip-rule="evenodd" d="M16.3555 14.6667C17.0919 14.6667 17.6888 15.2636 17.6888 16V21.3333C17.6888 22.0697 17.0919 22.6667 16.3555 22.6667C15.6191 22.6667 15.0222 22.0697 15.0222 21.3333V16C15.0222 15.2636 15.6191 14.6667 16.3555 14.6667Z" fill="white"/>
<path fill-rule="evenodd" clip-rule="evenodd" d="M15.0222 10.6667C15.0222 9.9303 15.6191 9.33334 16.3555 9.33334H16.3688C17.1052 9.33334 17.7022 9.9303 17.7022 10.6667C17.7022 11.4031 17.1052 12 16.3688 12H16.3555C15.6191 12 15.0222 11.4031 15.0222 10.6667Z" fill="white"/>
</svg>
