<svg width="44" height="44" viewBox="0 0 44 44" fill="none" xmlns="http://www.w3.org/2000/svg">
<path fill-rule="evenodd" clip-rule="evenodd" d="M30.5791 11.4883C31.3219 12.1764 31.3663 13.3363 30.6782 14.0792L14.1668 31.9053C12.8148 33.365 10.5602 33.365 9.20817 31.9053L2.32164 24.4704C1.6336 23.7275 1.67801 22.5676 2.42084 21.8795C3.16365 21.1915 4.32362 21.236 5.01165 21.9787L11.6875 29.1861L27.9884 11.5875C28.6764 10.8447 29.8364 10.8003 30.5791 11.4883ZM39.7466 11.4883C40.4893 12.1764 40.5339 13.3363 39.8458 14.0792L23.3343 31.9053C22.6462 32.648 21.4863 32.6925 20.7434 32.0045C20.0005 31.3164 19.9562 30.1565 20.6442 29.4136L37.1558 11.5875C37.8438 10.8447 39.0038 10.8003 39.7466 11.4883Z" fill="white"/>
</svg>
