<svg width="32" height="32" viewBox="0 0 32 32" fill="none" xmlns="http://www.w3.org/2000/svg">
<path d="M16 21.3333C15.7363 21.3333 15.4785 21.4115 15.2592 21.558C15.0399 21.7046 14.8691 21.9128 14.7681 22.1564C14.6672 22.4001 14.6408 22.6682 14.6923 22.9268C14.7438 23.1854 14.8707 23.423 15.0572 23.6095C15.2437 23.796 15.4812 23.9229 15.7399 23.9744C15.9985 24.0258 16.2666 23.9994 16.5102 23.8985C16.7539 23.7976 16.9621 23.6267 17.1086 23.4074C17.2551 23.1882 17.3333 22.9304 17.3333 22.6667C17.3333 22.313 17.1928 21.9739 16.9428 21.7238C16.6927 21.4738 16.3536 21.3333 16 21.3333ZM30.2266 23.2933L19.4933 4.62666C19.1464 4.00469 18.6397 3.48661 18.0256 3.12596C17.4115 2.76531 16.7122 2.57516 16 2.57516C15.2878 2.57516 14.5886 2.76531 13.9744 3.12596C13.3603 3.48661 12.8536 4.00469 12.5066 4.62666L1.83999 23.2933C1.48106 23.8987 1.28818 24.588 1.28086 25.2918C1.27352 25.9955 1.45199 26.6887 1.79825 27.3014C2.14449 27.9141 2.64627 28.4246 3.25291 28.7814C3.85955 29.1381 4.54957 29.3285 5.25333 29.3333H26.7466C27.4561 29.3403 28.1546 29.1585 28.7705 28.8065C29.3865 28.4546 29.8978 27.9452 30.252 27.3304C30.6062 26.7157 30.7905 26.0179 30.786 25.3085C30.7816 24.599 30.5885 23.9036 30.2266 23.2933ZM27.92 25.96C27.8031 26.1679 27.6326 26.3407 27.4263 26.4603C27.2199 26.5799 26.9852 26.642 26.7466 26.64H5.25333C5.01481 26.642 4.78013 26.5799 4.57375 26.4603C4.36738 26.3407 4.19686 26.1679 4.07999 25.96C3.96297 25.7573 3.90136 25.5274 3.90136 25.2933C3.90136 25.0593 3.96297 24.8294 4.07999 24.6267L14.7466 5.96C14.8586 5.7416 15.0286 5.55831 15.2379 5.43033C15.4473 5.30234 15.6879 5.23461 15.9333 5.23461C16.1787 5.23461 16.4193 5.30234 16.6287 5.43033C16.8381 5.55831 17.0081 5.7416 17.12 5.96L27.8533 24.6267C27.9856 24.8264 28.0616 25.0582 28.0734 25.2975C28.0851 25.5368 28.0321 25.7749 27.92 25.9867V25.96ZM16 10.6667C15.6463 10.6667 15.3072 10.8072 15.0572 11.0572C14.8071 11.3073 14.6666 11.6464 14.6666 12V17.3333C14.6666 17.687 14.8071 18.0261 15.0572 18.2762C15.3072 18.5262 15.6463 18.6667 16 18.6667C16.3536 18.6667 16.6927 18.5262 16.9428 18.2762C17.1928 18.0261 17.3333 17.687 17.3333 17.3333V12C17.3333 11.6464 17.1928 11.3073 16.9428 11.0572C16.6927 10.8072 16.3536 10.6667 16 10.6667Z" fill="white"/>
</svg>
